:SAMPLES-PER-SECOND 30
:FULLY-SPECIFIED
:DEGREES
363
root  -9.4984 37.0719 -1.9134 47.1986 -88.7159 -35.2803
RightUpLeg  -35.4507 -16.7026 7.49469
RightLeg  51.2224 -4.90087 -6.87464
RightFoot  -20.4231 -0.00775854 1.66771
RightToes  5.82063e-011 0 -3.6325e-017
Spine  67.9687 -5.71297 6.14817
Spine1  11.8968 2.19933 -11.2181
HEad  -52.4555 -3.97566 3.52854
LeftShoulder1  0.386302 -17.2261 7.47887
LeftArm  -84.4117 -68.835 32.6692
LeftForeArm  -41.0332 -7.58301 -0.913578
LeftHand  -0.244104 0.0205437 5.32207
RightShoulder  0.302749 12.7119 -7.47052
RightArm  -72.9859 66.6939 -1.2582
RightForeArm  -66.3773 20.0036 5.66811
RightHand  -1.28425 9.19124 -10.5616
LeftUpLeg  -46.8487 14.5806 -12.7301
LeftLeg  15.1679 7.15338 0.368356
LeftFoot  6.80763 -0.7656 4.51249
LeftToes  1.45487e-011 -6.19069e-011 1.65092e-011
364
root  -10.7535 37.1183 -1.75287 12.0089 -88.6869 0.145844
RightUpLeg  -36.2662 -17.0578 5.40469
RightLeg  55.7497 -3.6922 -6.24955
RightFoot  -17.0233 0.165062 6.04653
RightToes  5.82063e-011 0 -3.6325e-017
Spine  67.8932 -5.7599 5.77541
Spine1  11.371 1.65503 -11.1634
HEad  -52.3384 -3.99 4.03469
LeftShoulder1  0.403064 -17.1837 7.38659
LeftArm  -84.6515 -69.0178 32.1793
LeftForeArm  -40.3767 -8.35602 -0.872233
LeftHand  -0.244104 0.0205437 5.32207
RightShoulder  0.436228 12.7771 -6.53957
RightArm  -71.7289 66.3413 -0.462219
RightForeArm  -66.1533 21.3605 6.29419
RightHand  -1.32707 9.33271 -10.7996
LeftUpLeg  -47.3773 16.3921 -16.2879
LeftLeg  17.73 2.9073 1.17731
LeftFoot  9.1466 -1.60509 8.62478
LeftToes  1.45487e-011 -6.19069e-011 1.65092e-011
365
root  -11.9131 37.2699 -1.57446 -21.3072 -88.4762 33.6907
RightUpLeg  -38.7184 -16.8181 3.06671
RightLeg  61.2405 -2.68253 -5.84457
RightFoot  -8.40137 -0.281398 9.06529
RightToes  5.82063e-011 0 -3.6325e-017
Spine  67.8129 -5.74594 5.48378
Spine1  11.2803 1.38539 -11.3672
HEad  -52.4574 -4.13941 4.39905
LeftShoulder1  0.307166 -16.7661 7.87612
LeftArm  -86.5274 -69.1961 33.0031
LeftForeArm  -39.8602 -9.28917 -0.664282
LeftHand  -0.244104 0.0205437 5.32207
RightShoulder  0.533171 12.7248 -5.846
RightArm  -72.4572 65.66 -1.39506
RightForeArm  -66.0292 22.8645 6.84544
RightHand  -1.40669 9.42811 -11.3507
LeftUpLeg  -47.0969 15.2185 -16.2231
LeftLeg  20.8254 3.99175 2.0495
LeftFoot  7.36906 -1.62858 9.56229
LeftToes  1.45487e-011 -6.19069e-011 1.65092e-011
366
root  -12.984 37.4445 -1.34925 -46.5815 -88.6929 59.1046
RightUpLeg  -42.3125 -15.3223 1.08047
RightLeg  66.545 -1.86141 -5.37396
RightFoot  4.29213 -1.07187 8.25936
RightToes  5.82063e-011 0 -3.6325e-017
Spine  67.8853 -5.5358 5.43304
Spine1  11.3693 1.83551 -11.6186
HEad  -51.8205 -4.48216 3.70642
LeftShoulder1  0.368059 -17.1152 7.57707
LeftArm  -86.5699 -68.9695 33.1853
LeftForeArm  -39.608 -10.0812 -0.804666
LeftHand  -0.244104 0.0205437 5.32207
RightShoulder  0.552735 12.5962 -5.67714
RightArm  -73.6483 65.1781 -2.20011
RightForeArm  -65.2064 23.5597 7.06349
RightHand  -1.47168 9.54811 -11.764
LeftUpLeg  -46.4014 13.8906 -15.1662
LeftLeg  23.6981 6.06455 3.23905
LeftFoot  3.76512 -1.1962 8.82893
LeftToes  1.45487e-011 -6.19069e-011 1.65092e-011
367
root  -14.012 37.5141 -1.11949 -71.1539 -88.8698 83.8165
RightUpLeg  -45.9977 -13.1699 -0.656866
RightLeg  70.7591 -0.833074 -3.51918
RightFoot  14.7964 -1.09134 5.10821
RightToes  5.82063e-011 0 -3.6325e-017
Spine  67.9535 -5.35604 5.44538
Spine1  11.1323 2.36503 -11.6765
HEad  -50.5464 -4.72892 2.63105
LeftShoulder1  0.605711 -18.2216 6.4287
LeftArm  -84.1707 -68.4915 31.9084
LeftForeArm  -39.7078 -10.149 -1.1683
LeftHand  -0.244104 0.0205437 5.32207
RightShoulder  0.539344 12.495 -5.7476
RightArm  -73.5217 65.322 -1.93747
RightForeArm  -64.2838 23.2941 6.97332
RightHand  -1.47356 9.65351 -11.6999
LeftUpLeg  -45.9504 13.4932 -14.6805
LeftLeg  26.4357 6.79447 3.99656
LeftFoot  1.07523 -0.962943 8.79059
LeftToes  1.45487e-011 -6.19069e-011 1.65092e-011
368
root  -15.0302 37.5665 -0.935167 -77.8752 -88.6902 90.7591
RightUpLeg  -49.0647 -11.2338 -2.32241
RightLeg  73.1965 -0.0781095 -1.35865
RightFoot  17.7598 -0.502311 2.35745
RightToes  5.82063e-011 0 -3.6325e-017
Spine  67.8884 -5.47187 5.44684
Spine1  10.6342 2.34039 -11.7334
HEad  -49.8029 -4.68646 2.50945
LeftShoulder1  0.767632 -19.0034 5.71627
LeftArm  -82.0203 -68.2256 30.2751
LeftForeArm  -40.1718 -9.44074 -1.22651
LeftHand  -0.244104 0.0205437 5.32207
RightShoulder  0.557626 12.6304 -5.65103
RightArm  -72.0067 65.6815 -1.54208
RightForeArm  -64.6176 22.7356 6.81315
RightHand  -1.40762 9.58835 -11.2422
LeftUpLeg  -45.5962 13.6134 -14.8616
LeftLeg  28.6226 6.66813 4.27596
LeftFoot  -0.4178 -0.930837 9.73735
LeftToes  1.45487e-011 -6.19069e-011 1.65092e-011
369
root  -16.0205 37.7577 -0.781599 -81.0767 -88.534 94.3124
RightUpLeg  -51.6061 -9.71202 -3.57955
RightLeg  72.5831 -0.0644028 -1.19514
RightFoot  14.7134 -0.0816955 0.798538
RightToes  5.82063e-011 0 -3.6325e-017
Spine  68.0402 -5.7916 5.6244
Spine1  10.3279 2.08176 -11.8807
HEad  -50.2686 -4.59227 3.16382
LeftShoulder1  0.757778 -19.0557 5.77819
LeftArm  -81.6335 -68.2412 29.3359
LeftForeArm  -40.7971 -8.70683 -0.91602
LeftHand  -0.244104 0.0205437 5.32207
RightShoulder  0.579201 12.9473 -5.57625
RightArm  -70.7513 65.765 -1.85714
RightForeArm  -65.7846 22.4772 6.76698
RightHand  -1.32052 9.31147 -10.7639
LeftUpLeg  -44.6717 13.4264 -14.7901
LeftLeg  29.5334 6.99634 4.6182
LeftFoot  -1.72079 -0.856259 10.257
LeftToes  1.45487e-011 -6.19069e-011 1.65092e-011
370
root  -16.9587 38.0257 -0.652261 -93.7526 -88.6229 107.419
RightUpLeg  -53.5231 -8.60876 -3.92847
RightLeg  68.0033 -0.760983 -2.77678
RightFoot  10.306 -0.0578557 0.688131
RightToes  5.82063e-011 0 -3.6325e-017
Spine  68.4864 -5.98764 6.05204
Spine1  10.1356 2.08294 -11.847
HEad  -51.3803 -4.68539 3.47792
LeftShoulder1  0.75799 -19.0036 5.76841
LeftArm  -81.9489 -68.1592 29.0469
LeftForeArm  -41.3321 -8.67651 -0.655968
LeftHand  -0.244104 0.0205437 5.32207
RightShoulder  0.538372 13.0359 -5.88233
RightArm  -71.1204 65.7404 -2.31002
RightForeArm  -65.8968 22.579 6.79914
RightHand  -1.2847 9.10621 -10.6239
LeftUpLeg  -43.3222 13.0857 -14.1923
LeftLeg  29.6032 7.55582 4.96676
LeftFoot  -3.26327 -0.666889 9.68717
LeftToes  1.45487e-011 -6.19069e-011 1.65092e-011
